<svg fill="none" height="123" width="132" xmlns="http://www.w3.org/2000/svg"><path d="M31.49 100.02h99.43c2.13 0 5.1.96 6.79 2.2l21.25 15.85c1.95 1.43 2.86 2.8 2.72 3.67-.11.7-.88 1.1-2.31 1.1H3.08c-1.47 0-2.2-.44-2.31-1.14-.15-.88.8-2.23 2.71-3.63l21.22-15.84a13.09 13.09 0 016.79-2.2z" fill="#011325" opacity=".25"/><path d="M152.1 105.53c.1 1.61-.22 1.87-2.2 1.87H3.45c-2.13 0-2.2-.74-2.2-2.35 0-.66 0-.92.03-2.13.11.66.81 1.07 2.17 1.07H149.9c1.35 0 2.05-.4 2.16-1.03h.04v2.57zm-11.53.4v-.33c0-.33-.29-.62-.62-.62h-24.7c-.33 0-.63.29-.63.62v.33c0 .33.3.62.63.62h24.7c.33 0 .62-.29.62-.62z" fill="#00407B"/><path d="M147.62 100.65c1.14.91.11 1.65-2.35 1.65H15.71c-2.46 0-3.6-.77-2.57-1.65L32.3 83.92c.47-.44 2.2-.77 3.85-.77h86.18c1.65 0 3.42.33 3.93.77l21.36 16.73z" fill="#99CCFB"/><path d="M140.57 105.56v.33c0 .33-.29.63-.62.63h-24.7a.64.64 0 01-.63-.63v-.33c0-.33.3-.62.63-.62h24.7c.33 0 .63.3.63.62z" fill="#1A2D4D"/><path d="M122.33 83.15H36.12c-1.66 0-3.34.33-3.86.77l-19.12 16.73c-1.03.91.1 1.65 2.57 1.65h129.6c2.46 0 3.49-.77 2.35-1.65l-21.4-16.73c-.55-.44-2.31-.77-3.93-.77zM3.82 99.47L23.7 84.65a12.2 12.2 0 016.35-2.05h93.19c1.98 0 4.77.91 6.35 2.05l19.9 14.82c1.8 1.36 2.67 2.6 2.53 3.45-.11.66-.81 1.03-2.17 1.03H3.45c-1.36 0-2.1-.4-2.17-1.06-.14-.85.74-2.1 2.54-3.42zm13.14-8.58c-.48.4.18.73 1.5.73s2.75-.36 3.2-.77c.43-.4-.26-.7-1.55-.7-1.25 0-2.68.34-3.15.74z" fill="#007FF5"/><path d="M20.15 90.16c1.28 0 1.98.29 1.54.7-.44.4-1.87.76-3.2.76-1.31 0-1.97-.3-1.5-.73.44-.4 1.87-.73 3.16-.73z" fill="#96C5EB"/><path d="M152.06 102.92c-.1.66-.8 1.03-2.16 1.03H3.45c-1.36 0-2.1-.4-2.17-1.06-.1-.85.74-2.1 2.54-3.42L23.7 84.65a12.2 12.2 0 016.35-2.05h93.19c1.98 0 4.77.91 6.35 2.05l19.9 14.82c1.83 1.36 2.7 2.6 2.56 3.45z" stroke="#1D1D1B"/><path d="M145.3 102.3H15.7c-2.45 0-3.59-.77-2.56-1.65L32.3 83.92c.47-.44 2.2-.77 3.85-.77h86.18c1.65 0 3.42.33 3.93.77l21.36 16.73c1.17.88.15 1.65-2.31 1.65zM21.7 90.85c-.45.4-1.88.77-3.2.77-1.32 0-1.98-.3-1.5-.73.47-.4 1.9-.73 3.19-.73 1.24-.04 1.94.29 1.5.7zm130.4 14.68c.1 1.61-.22 1.87-2.2 1.87H3.45c-2.13 0-2.2-.73-2.2-2.35m.03-2.2v.04c0 1.24-.03 1.46-.03 2.12" stroke="#1D1D1B"/><path d="M139.95 106.55h-24.7a.64.64 0 01-.63-.62v-.33c0-.33.3-.62.63-.62h24.7c.33 0 .63.29.63.62v.33c0 .33-.3.62-.63.62z" fill="#00203D" stroke="#1D1D1B"/><path d="M97.56 74.16l.14-.3 1.14-2.56a7.15 7.15 0 019.07-2.97c.26.1.51.25.77.4a5 5 0 01.59 3.63 13.88 13.88 0 01-1.33 3.56l-9.06 19.33c-2.02.11-4.04.26-6.02-.18-.44-.1-.7.33-.59.66-2.38-.1-4-.33-4.04-.55l9.33-21.02z" fill="#99CCFB"/><path d="M103.54 29.18a3.09 3.09 0 01-6.17.22c.88.66 1.99.7 3.01.59a5 5 0 003.05-1.43c.1.18.1.4.1.62z" fill="#92B82C"/><path d="M103.5 28.56a5.1 5.1 0 01-3.05 1.43c-1.02.1-2.16.07-3-.59v-.22a3.1 3.1 0 013.08-3.08 3.1 3.1 0 012.97 2.46z" fill="#C3F53A"/><path d="M103.9 95.14l.33-.77c2.24.15 4.41.19 6.58.66.44.3-1.66.55-2.5.63-2.72.3-5.5.4-8.22.14v-.14c2.27-.11 3.78-.3 3.81-.52zm-4.29.04c.33 0 .48.22.48.48v.14c-.48-.03-.96-.07-1.43-.14l.22-.48c.25.04.47 0 .73 0z" fill="#3399F7"/><path d="M100.09 95.66c0-.26-.15-.52-.48-.48-.26 0-.48.04-.73.04 3.04-6.5 6.02-12.8 9.06-19.34.55-1.13 1.1-2.3 1.32-3.56a4.83 4.83 0 00-.58-3.63 7.2 7.2 0 012.82 9.1c-.1.26-.18.44-.3.62a6.5 6.5 0 01-.25.56c-.03.1-.1.25-.18.4l-.15.33-.07.18-6.31 14.5-.33.76c-.04.22-1.55.4-3.82.52z" fill="#3399F7"/><path d="M91.2 9.77a14.36 14.36 0 01-11.01 2.9 11.12 11.12 0 01-3.89-1.32 6.73 6.73 0 01-2.16-1.9 8.52 8.52 0 018.51-8.26 8.64 8.64 0 018.56 8.58z" fill="#C3F53A"/><path d="M91.2 9.77a8.52 8.52 0 01-17.02 0v-.29a6.41 6.41 0 002.16 1.9c1.18.7 2.53 1.1 3.9 1.33 3.37.51 6.9-.26 9.8-2.06.43-.33.73-.47 1.17-.88z" fill="#92B82C"/><path d="M83.87 85.72c1.06.07 1.9.07 3 .25.19.04.45.08.56.19.22.25-1.91.29-2.83.29-.95 0-1.83.04-2.75.07 1.2-.03 2.02-.14 2.02-.25v-.55z" fill="#3399F7"/><path d="M83.24 74.49c.19 0 .22.11.22.18 0 .11.04.3.04.44l.33 10.6v.52c0 .11-.84.22-2.02.26h-.51c-.04-.11-.04-.19-.15-.26-.11-.07-.22-.15-.33-.15h-.18c.88-3.81 1.76-7.74 2.6-11.59z" fill="#3399F7"/><path d="M83.24 74.49c-.84 3.85-1.76 7.78-2.6 11.67h-.33c-.08 0-.15-.04-.23-.04-.1-.04-.25 0-.36.04a.57.57 0 00-.22.29v.15c-1.65-.04-2.87-.15-2.87-.3l6.24-11.48c.08-.11.11-.3.33-.3 0-.03.04-.03.04-.03z" fill="#96C5EB"/><path d="M81.19 86.3a.6.6 0 01.14.26h-.77l.11-.4h.19c.1-.04.22.03.33.14z" fill="#3399F7"/><path d="M75.8 73.94a3.52 3.52 0 01-6.9.99c2.3 1.17 4.9.66 6.85-1.06.04.03.04.03.04.07z" fill="#92B82C"/><path d="M75.8 73.9c-1.95 1.69-4.6 2.24-6.9 1.07a3.52 3.52 0 013.38-4.51 3.48 3.48 0 013.51 3.44zm-3.64-38.7c.62-.04.73-.04 1.35.1a3.3 3.3 0 01-3.3 2.9c-.73 0-1.36-.18-1.9-.5.32-1.03 1.1-1.55 2.01-2.06.74-.37 1.21-.4 1.84-.44z" fill="#C3F53A"/><path d="M73.48 34.2c.11.34.07.34.07.67 0 .14 0 .3-.03.4a3.42 3.42 0 00-1.36-.1 3.7 3.7 0 00-1.84.47c-.95.51-1.69 1.03-2.02 2.05a3.07 3.07 0 01-1.43-2.46c.04-.03.11-.07.19-.1a6.9 6.9 0 013.63-1.36c.92-.11 1.9.03 2.79.44z" fill="#92B82C"/><path d="M63.1 12.45c.84.52 1.28 1.1 1.06 1.58l-6.1 15.37c.04-.48-.44-1.1-1.25-1.58 2.28-5.57 4-9.83 6.28-15.37zM61 87.55v.18c0 .3-.04.44-.07.77 0 .15-1.25.26-3.27.37-.07-.18-.26-.4-.48-.37-.88.11-1.76.19-2.64.22.26-2.12.18-4.36-.51-6.38a8.32 8.32 0 00-4.08-4.95c6.17.4 11.05 4.77 11.05 10.16z" fill="#3399F7"/><path d="M58.1 29.4c0 .04-.04.11-.04.15-.25.62-1.5.73-2.9.18-1.35-.55-2.2-1.54-1.94-2.16 0-.04 0-.04.03-.04.3-.59 1.5-.59 2.87-.04l.77.37c.77.44 1.25 1.03 1.2 1.54z" fill="#fff"/><path d="M62.14 88.9c-2.57 0-5.07.08-7.64.08 0-.07.04-.18.04-.26.88-.03 1.76-.1 2.64-.22.22-.03.4.15.48.37 2.02-.1 3.27-.22 3.27-.37.03-.33.07-.47.07-.77 1.87.08 5.65.33 5.4.74-.7.36-2.83.4-4.26.44z" fill="#3399F7"/><path d="M54.03 82.3c.7 2.02.8 4.26.5 6.39-.36.03-.72.03-1.13.03-.22 0-.33.11-.4.26-1.25.04-2.6.04-4 .04-1.7 0-3.3 0-4.77-.04.03-.04.03-.1.03-.18 0-.3-.22-.48-.47-.48-1.14-.07-2.28 0-3.38-.15-.26-.03-.52.08-.59.33-.04.11 0 .19.04.3-1.7-.11-2.72-.22-2.72-.33h-.03c-.04-.3-.04-.63-.04-.96 0-5.61 5.36-10.2 12-10.2.33 0 .62 0 .92.04 1.94 1 3.3 2.86 4.04 4.95z" fill="#96C5EB"/><path d="M54.2 55.49a4.05 4.05 0 01-2.93 6.01c.37-.59.44-.8.52-1.58.22-2.3-.96-4.47-2.13-6.49-4.15-7.23-8.34-14.42-12.48-21.64-.66-1.14-1.18-2.46-2.31-3.12-.52-.3-1.1-.33-1.62.18a4.02 4.02 0 016.5.77c.29.51.66 1.1.91 1.62l12.85 22.89.11.18c.18.4.33.74.59 1.18z" fill="#3399F7"/><path d="M53.22 27.5l6.13-15.38c.25-.62 1.5-.66 2.86-.1.33.14.62.25.88.43l-6.28 15.37a3.76 3.76 0 00-.77-.36c-1.32-.55-2.53-.55-2.82.03zm-3.56 25.93c1.17 2.02 2.35 4.18 2.13 6.5-.08.73-.15.99-.52 1.57a4.18 4.18 0 01-4.07-2.05l-.66-1.18-12.96-23.04-.88-1.54-.04-.03a4.14 4.14 0 01.48-4.74l.04-.03c.51-.52 1.1-.48 1.61-.19 1.14.66 1.7 1.99 2.32 3.12 4.22 7.2 8.36 14.42 12.55 21.61z" fill="#96C5EB"/><path d="M43.64 69.9a2.92 2.92 0 01-3.64.48v-.18c0-1.03.81-1.84 1.84-1.84.92-.03 1.69.66 1.8 1.54z" fill="#C3F53A"/><path d="M40 70.38c1.18.77 2.87.44 3.64-.48.03.08.03.19.03.26 0 1.03-.8 1.83-1.83 1.83-.96.04-1.76-.7-1.84-1.61z" fill="#92B82C"/><path d="M47.16 59.45l.15.26M33.58 35.23L46.5 58.27m7.08-3.96l.66 1.21M39.79 29.73l.84 1.5 12.85 22.9m5.87-42.01L53.22 27.5m11.01-13.58l-.07.11L58.1 29.4h-.04M97.7 73.83l1.14-2.53v-.04M88.16 95.25l.07-.1 9.33-21M76.63 86.27l6.24-11.49.08-.14" stroke="#1D1D1B"/><path d="M92.27 95.7c-2.38-.12-4-.34-4.04-.56m15.67 0c-.03.22-1.54.44-3.81.55M39.82 88.8c-1.69-.11-2.71-.22-2.71-.33m15.89.51c-1.25.04-2.6.04-4 .04-1.7 0-3.3 0-4.78-.04m35.28-2.42c-1.65-.04-2.87-.15-2.87-.3" stroke="#1D1D1B"/><path d="M108.68 68.7a5 5 0 01.58 3.62 13.88 13.88 0 01-1.32 3.56l-9.06 19.34c-.08.14-.15.3-.22.47m-.04.01h.04c.47.07.95.1 1.43.14 2.72.22 5.5.15 8.22-.15.84-.1 2.94-.33 2.5-.62-2.17-.51-4.33-.51-6.57-.66m-21-19.92c-.84 3.85-1.76 7.81-2.6 11.67l-.11.4m1.32-.04c.92-.03 1.8-.03 2.75-.07.95 0 3.05-.07 2.83-.3-.11-.1-.4-.14-.55-.18-1.1-.14-1.91-.18-3.01-.25m-3.31.84h1.03M54.5 88.98c2.57 0 5.07-.07 7.64-.07 1.43 0 3.56-.04 4.25-.44.26-.4-3.48-.66-5.4-.74" stroke="#3399F7"/><path d="M40 70.38c1.18.77 2.87.44 3.64-.48" stroke="#92B82C"/><path d="M51.24 61.5s0 .04 0 0" stroke="#3399F7"/><path d="M63.1 12.45l-6.3 15.37 6.28-15.37z" fill="#3399F7"/><path d="M33.58 35.23l-.88-1.54-.04-.03a4.14 4.14 0 01.48-4.74l.04-.03a4.02 4.02 0 016.5.77c.29.51.66 1.1.91 1.61M51.24 61.5a4.18 4.18 0 01-4.08-2.05l-.66-1.18m6.98-4.14l.1.18c.23.4.41.74.63 1.18a4.05 4.05 0 01-2.94 6.01M97.4 74.49c.04-.11.12-.22.16-.33l.14-.3c.26-.62.44-1.1.77-1.83.11-.26.26-.51.37-.73a7.15 7.15 0 019.06-2.97 7.2 7.2 0 013.6 9.5c-.1.25-.18.44-.3.62-.06.19-.14.33-.25.55-.03.11-.1.26-.18.4-.04.12-.11.23-.15.34" stroke="#1D1D1B"/><path d="M103.9 95.14l.34-.77 6.31-14.41.11-.19.15-.36.18-.4.22-.56.37-.77M83.9 86.27l-.03-.55-.34-10.6-.03-.48" stroke="#1D1D1B"/><path d="M81.59 86.52h-.26m.52 0h-.26" stroke="#3399F7"/><path d="M83.9 86.27c0 .1-.84.22-2.02.25m1-11.74c.07-.1.1-.29.33-.29h.07c.18 0 .22.11.22.18 0 .11.04.3.04.44M75.8 73.9v.04a3.52 3.52 0 110-.04zM37.07 88.61v-.14c-.04-.3-.04-.63-.04-.96 0-5.61 5.36-10.2 12-10.2.33 0 .63 0 .92.04 6.2.4 11.09 4.8 11.09 10.16v.19c0 .29-.04.44-.08.77" stroke="#1D1D1B"/><path d="M60.93 88.47c0 .14-1.25.25-3.27.36M43.64 69.9c.03.08.03.19.03.26 0 1.03-.8 1.83-1.83 1.83-.96 0-1.73-.73-1.84-1.65v-.18c0-1.03.81-1.83 1.84-1.83.92 0 1.69.7 1.8 1.57zm59.86-41.34a3.1 3.1 0 01-3.01 3.7 3.09 3.09 0 01-3.08-2.86v-.22a3.1 3.1 0 013.08-3.08 3.1 3.1 0 013.01 2.46zM91.2 9.77a8.52 8.52 0 01-17.02 0v-.29a8.52 8.52 0 0117.03.3zm-31.85 2.35c.25-.62 1.5-.66 2.86-.1.33.14.62.25.88.43.85.52 1.29 1.1 1.07 1.58M58.1 29.4c0 .04-.04.11-.04.15-.25.62-1.5.73-2.9.18-1.35-.55-2.2-1.54-1.94-2.16 0-.04 0-.04.03-.04.3-.59 1.5-.59 2.87-.04l.77.37c.77.44 1.25 1.03 1.2 1.54zm15.38 4.8c.11.34.07.34.07.67 0 .14 0 .3-.03.4a3.3 3.3 0 01-3.3 2.9c-.74 0-1.36-.18-1.92-.51a3.07 3.07 0 01-1.43-2.46" stroke="#1D1D1B"/><path d="M66.28 53.61c2.2 3.82 4.4 5.84 8.08 5.14l-3.38-9.24c-9.14.58-12.88-1.7-14.35-5.8-1.69-4.62.55-10.38 7.42-13.28l-1.07-2.9 2.6-.95 1.07 2.93c5.54-1.54 10.9-.44 14.35 4.73l-5.28 3.9c-1.58-1.88-3.75-3.42-6.87-2.69l2.87 7.86c10.5-.55 14.13 1.5 15.82 6.09 2.16 6.01-1 11.59-8.34 14.52l1.44 3.93-2.61.95-1.47-4c-6.9 1.8-12.84-.36-16.44-7.22l6.16-3.97zm2.5-10.23l-2.57-7.08c-3.3 1.36-3.93 3.34-3.3 4.99.62 1.76 2.09 2.24 5.87 2.09zm8.26 14.6c3.56-1.28 5.28-3.41 4.3-6.13-.81-2.27-2.43-2.86-7.46-2.56l3.16 8.7z" fill="#fff" stroke="#000"/><path d="M85.63 39.97c-.63.7-1.36.84-2.1.3v-.16c0-.58.48-1.06 1.07-1.06.51 0 .95.4 1.03.92z" fill="#C3F53A"/><path d="M85.66 40.11c0 .6-.47 1.07-1.06 1.07-.55 0-.95-.4-1.06-.92.77.55 1.46.4 2.09-.3 0 .04.03.08.03.15z" fill="#92B82C"/><path d="M83.54 40.26c.77.55 1.46.4 2.09-.3" stroke="#92B82C"/><path d="M85.63 39.97v.14c0 .6-.48 1.07-1.07 1.07-.55 0-.95-.4-1.06-.92v-.15a1.071 1.071 0 012.13-.14z" stroke="#1D1D1B"/><path d="M93.37 46.64a14.47 14.47 0 00-4.3 6.17c-.58 1.58-.91 3.56.15 4.88a2.19 2.19 0 002.72.33c1.47-.15 3.56-1.84 5.29-4.19 1.8-2.45 2.78-4.84 2.6-6.27a.88.88 0 00-.07-.33v-.04a5.08 5.08 0 00-.59-1.46c-.37-.59-1.14-.81-1.83-.81-1.5-.04-2.83.77-3.97 1.72zm-6.57 12c-.59-2.68.55-6.57 3.16-10.09 3.67-4.91 8.88-7.23 11.63-5.17 2.76 2.05 2.02 7.7-1.65 12.62a16.61 16.61 0 01-5.17 4.7c-.04-.4-.33-.67-.74-.85-.51-.22-1.1-.1-1.65 0-1.03.26-2.1.59-3.16.52-1.1-.08-2.12-.7-2.42-1.73z" fill="#96C5EB"/><path d="M97.34 44.88c.7 0 1.46.22 1.83.81.33.59.48 1 .59 1.47-.07-.22-.18-.4-.33-.55-1.25-1.21-4.52.33-6.83 3.45-2.31 3.11-2.97 6.42-1.83 7.55.25.26.58.4.99.37h.18a2.14 2.14 0 01-2.72-.33c-1.1-1.28-.73-3.3-.14-4.88a14.25 14.25 0 014.3-6.16c1.13-.92 2.45-1.73 3.96-1.73zM90 61.83a3.58 3.58 0 01-1.73-.73 4.07 4.07 0 01-1.5-2.5c.33 1.03 1.32 1.65 2.42 1.73 1.06.07 2.13-.26 3.15-.52.56-.1 1.14-.22 1.66 0 .36.15.7.44.73.85-1.69.99-3.34 1.4-4.73 1.17z" fill="#3399F7"/><path d="M91.72 58.02c-.51.07-.92.1-1.58 0m2.09-.08l-.5.11" stroke="#1D1D1B"/><path d="M99.17 45.69c-.04 0-.04 0 0 0-.37-.59-1.14-.84-1.83-.84-1.47 0-2.83.8-3.97 1.76a14.47 14.47 0 00-4.3 6.16c-.58 1.58-.91 3.56.15 4.88a2.19 2.19 0 002.72.33m-5.14.66c.33 1.03 1.32 1.65 2.42 1.72 1.07.08 2.13-.25 3.16-.5.55-.12 1.14-.23 1.65 0 .37.14.7.43.74.84" stroke="#3399F7"/><path d="M86.8 58.64c-.59-2.68.55-6.57 3.16-10.09 3.67-4.91 8.88-7.23 11.63-5.17 2.76 2.05 2.02 7.7-1.65 12.62a16.61 16.61 0 01-5.17 4.7c-1.7.95-3.34 1.35-4.74 1.13a3.58 3.58 0 01-1.72-.73 3.89 3.89 0 01-1.5-2.46z" stroke="#1D1D1B"/><path d="M91.9 58.02h-.18c-.4 0-.73-.11-.99-.37-1.14-1.14-.44-4.44 1.84-7.56 2.3-3.15 5.57-4.66 6.82-3.45.15.15.26.33.33.55" stroke="#1D1D1B"/><path d="M91.94 58.02h-.04" stroke="#3399F7"/><path d="M99.72 47.2c.04.1.04.21.08.32.18 1.44-.81 3.78-2.61 6.28-1.73 2.35-3.82 4.03-5.29 4.18" stroke="#1D1D1B"/><path d="M99.8 47.56c-.04-.1-.04-.26-.08-.33v-.04a5.08 5.08 0 00-.59-1.46v-.04" stroke="#1D1D1B"/></svg>